<svg width="200" height="57" viewBox="0 0 200 57" fill="none" xmlns="http://www.w3.org/2000/svg">
<path d="M0 36.6227H52.7199V51.8822H0V36.6227Z" fill="white"/>
<path d="M7.82741 18.3114H44.6623V33.5708H7.82741V18.3114Z" fill="white"/>
<path d="M15.885 0H36.8349V15.2595H15.885V0Z" fill="white"/>
<path d="M66.7402 14.6726V18.7809H72.1503V21.3867H66.7402V25.7298H72.8409V28.4061H63.5171V11.9963H72.8409V14.6726H66.7402Z" fill="white"/>
<path d="M78.993 11.0338V28.4061H75.7699V11.0338H78.993Z" fill="white"/>
<path d="M94.0336 21.6215C94.0336 22.091 94.0029 22.5136 93.9415 22.8892H84.6177C84.6944 23.8283 85.0167 24.5638 85.5846 25.096C86.1525 25.6281 86.8508 25.8941 87.6796 25.8941C88.8767 25.8941 89.7285 25.3699 90.235 24.3213H93.7113C93.3429 25.5733 92.6369 26.6063 91.5933 27.4201C90.5496 28.2183 89.2681 28.6174 87.7486 28.6174C86.5208 28.6174 85.4158 28.3435 84.4335 27.7957C83.4666 27.2323 82.7069 26.4419 82.1543 25.4246C81.6172 24.4073 81.3486 23.2335 81.3486 21.9032C81.3486 20.5572 81.6172 19.3756 82.1543 18.3583C82.6915 17.341 83.4436 16.5585 84.4105 16.0107C85.3774 15.4629 86.4901 15.189 87.7486 15.189C88.9611 15.189 90.0431 15.4551 90.9947 15.9872C91.9616 16.5194 92.706 17.2784 93.2278 18.2644C93.765 19.2348 94.0336 20.3538 94.0336 21.6215ZM90.6954 20.6825C90.6801 19.8373 90.3808 19.1643 89.7976 18.6635C89.2143 18.147 88.5007 17.8888 87.6565 17.8888C86.8585 17.8888 86.1832 18.1392 85.6306 18.64C85.0935 19.1252 84.7635 19.806 84.6407 20.6825H90.6954Z" fill="white"/>
<path d="M112.225 15.2125C113.791 15.2125 115.049 15.7055 116.001 16.6915C116.968 17.6619 117.451 19.0235 117.451 20.7764V28.4061H114.228V21.2224C114.228 20.2051 113.975 19.4304 113.468 18.8983C112.962 18.3505 112.271 18.0766 111.396 18.0766C110.522 18.0766 109.823 18.3505 109.301 18.8983C108.795 19.4304 108.542 20.2051 108.542 21.2224V28.4061H105.319V21.2224C105.319 20.2051 105.065 19.4304 104.559 18.8983C104.052 18.3505 103.362 18.0766 102.487 18.0766C101.597 18.0766 100.891 18.3505 100.369 18.8983C99.8624 19.4304 99.6092 20.2051 99.6092 21.2224V28.4061H96.3861V15.4003H99.6092V16.9732C100.024 16.4255 100.553 15.9951 101.198 15.682C101.858 15.369 102.579 15.2125 103.362 15.2125C104.359 15.2125 105.25 15.4316 106.032 15.8699C106.815 16.2924 107.421 16.9028 107.851 17.701C108.265 16.9498 108.864 16.3472 109.647 15.8933C110.445 15.4395 111.304 15.2125 112.225 15.2125Z" fill="white"/>
<path d="M132.366 21.6215C132.366 22.091 132.335 22.5136 132.274 22.8892H122.95C123.027 23.8283 123.349 24.5638 123.917 25.096C124.485 25.6281 125.183 25.8941 126.012 25.8941C127.209 25.8941 128.061 25.3699 128.567 24.3213H132.043C131.675 25.5733 130.969 26.6063 129.925 27.4201C128.882 28.2183 127.6 28.6174 126.081 28.6174C124.853 28.6174 123.748 28.3435 122.766 27.7957C121.799 27.2323 121.039 26.4419 120.487 25.4246C119.949 24.4073 119.681 23.2335 119.681 21.9032C119.681 20.5572 119.949 19.3756 120.487 18.3583C121.024 17.341 121.776 16.5585 122.743 16.0107C123.71 15.4629 124.822 15.189 126.081 15.189C127.293 15.189 128.375 15.4551 129.327 15.9872C130.294 16.5194 131.038 17.2784 131.56 18.2644C132.097 19.2348 132.366 20.3538 132.366 21.6215ZM129.028 20.6825C129.012 19.8373 128.713 19.1643 128.13 18.6635C127.547 18.147 126.833 17.8888 125.989 17.8888C125.191 17.8888 124.515 18.1392 123.963 18.64C123.426 19.1252 123.096 19.806 122.973 20.6825H129.028Z" fill="white"/>
<path d="M141.786 15.2125C143.305 15.2125 144.533 15.7055 145.469 16.6915C146.406 17.6619 146.874 19.0235 146.874 20.7764V28.4061H143.651V21.2224C143.651 20.1895 143.398 19.3991 142.891 18.8513C142.385 18.2879 141.694 18.0062 140.819 18.0062C139.929 18.0062 139.223 18.2879 138.701 18.8513C138.195 19.3991 137.941 20.1895 137.941 21.2224V28.4061H134.718V15.4003H137.941V17.0202C138.371 16.4568 138.916 16.0185 139.576 15.7055C140.251 15.3769 140.988 15.2125 141.786 15.2125Z" fill="white"/>
<path d="M153.691 18.1001V24.3917C153.691 24.8299 153.791 25.1507 153.991 25.3542C154.205 25.542 154.558 25.6359 155.05 25.6359H156.546V28.4061H154.52C151.804 28.4061 150.445 27.0601 150.445 24.3682V18.1001H148.926V15.4003H150.445V12.1841H153.691V15.4003H156.546V18.1001H153.691Z" fill="white"/>
<path d="M158.035 21.8563C158.035 20.5416 158.289 19.3756 158.795 18.3583C159.317 17.341 160.015 16.5585 160.89 16.0107C161.78 15.4629 162.77 15.189 163.86 15.189C164.811 15.189 165.64 15.3847 166.346 15.7759C167.068 16.1672 167.643 16.6602 168.073 17.2549V15.4003H171.319V28.4061H168.073V26.5045C167.659 27.1149 167.083 27.6236 166.346 28.0305C165.625 28.4217 164.788 28.6174 163.837 28.6174C162.763 28.6174 161.78 28.3357 160.89 27.7722C160.015 27.2088 159.317 26.4184 158.795 25.4012C158.289 24.3682 158.035 23.1866 158.035 21.8563ZM168.073 21.9032C168.073 21.105 167.919 20.4242 167.612 19.8608C167.306 19.2817 166.891 18.8435 166.369 18.5461C165.847 18.2331 165.287 18.0766 164.689 18.0766C164.09 18.0766 163.538 18.2253 163.031 18.5227C162.525 18.82 162.11 19.2582 161.788 19.8373C161.481 20.4007 161.328 21.0737 161.328 21.8563C161.328 22.6388 161.481 23.3274 161.788 23.9222C162.11 24.5012 162.525 24.9473 163.031 25.2603C163.553 25.5733 164.105 25.7298 164.689 25.7298C165.287 25.7298 165.847 25.5811 166.369 25.2838C166.891 24.9708 167.306 24.5325 167.612 23.9691C167.919 23.39 168.073 22.7014 168.073 21.9032Z" fill="white"/>
<path d="M177.69 17.4193C178.104 16.7306 178.641 16.1907 179.301 15.7994C179.977 15.4082 180.744 15.2125 181.604 15.2125V18.6635H180.752C179.739 18.6635 178.971 18.9061 178.45 19.3913C177.943 19.8764 177.69 20.7216 177.69 21.9267V28.4061H174.467V15.4003H177.69V17.4193Z" fill="white"/>
<path d="M195.976 15.4003L188.08 34.5568H184.649L187.412 28.0774L182.301 15.4003H185.916L189.208 24.4856L192.546 15.4003H195.976Z" fill="white"/>
<path d="M68.7891 51.8822C70.4237 51.8822 71.9661 51.3892 73.1172 50.4971C73.7158 50.0511 74.1992 49.5111 74.5446 48.9007C74.8899 48.2434 75.0741 47.5391 75.0741 46.8348C75.0741 45.4028 74.4525 44.1116 73.3014 43.2195C72.2194 42.3509 70.6769 41.8579 68.8582 41.764C67.8222 41.6936 66.9013 41.3649 66.2337 40.8484C65.8193 40.5198 65.3358 39.9563 65.3358 39.1816C65.3358 38.5243 65.6581 37.8904 66.2567 37.4209C66.9243 36.881 67.8222 36.5758 68.7891 36.5758C69.756 36.5758 70.6539 36.881 71.3215 37.4209C71.9201 37.8904 72.2654 38.5243 72.2654 39.1816H74.3374C74.3374 38.5008 74.1762 37.867 73.8539 37.2566C73.5546 36.6932 73.1402 36.1767 72.6107 35.7541C71.5978 34.9325 70.2395 34.4629 68.7891 34.4629C67.3618 34.4629 66.0035 34.9325 64.9675 35.7541C64.438 36.1767 64.0236 36.6932 63.7243 37.2566C63.402 37.867 63.2639 38.5008 63.2639 39.1816C63.2639 40.4728 63.8625 41.6466 64.9675 42.5152C65.9574 43.2899 67.2697 43.7595 68.72 43.8769H68.7431C70.5157 43.9708 71.5057 44.4638 72.0352 44.8863C72.6798 45.4028 73.0021 46.0367 73.0021 46.8348C73.0021 47.5626 72.6107 48.2669 71.897 48.8068C71.0683 49.4172 69.9632 49.7694 68.7891 49.7694C67.615 49.7694 66.5099 49.4172 65.7042 48.8068C64.9675 48.2669 64.5761 47.5626 64.5761 46.8348H62.5042C62.5042 47.5391 62.6883 48.2434 63.0567 48.9007C63.379 49.5111 63.8624 50.0511 64.461 50.4971C65.6351 51.3892 67.1776 51.8822 68.7891 51.8822Z" fill="white"/>
<path d="M82.3421 51.8822C83.9997 51.8822 85.5421 51.2249 86.6932 50.0511L85.2198 48.5486C84.4601 49.3468 83.4472 49.7694 82.3421 49.7694C80.109 49.7694 78.2903 47.9147 78.2903 45.6141C78.2903 43.3369 80.109 41.4823 82.3421 41.4823C83.4472 41.4823 84.4601 41.9049 85.2198 42.703L86.6932 41.2006C85.5421 40.0268 83.9997 39.3694 82.3421 39.3694C80.7076 39.3694 79.1651 40.0268 78.014 41.2006C76.8629 42.3744 76.2183 43.9473 76.2183 45.6141C76.2183 47.3044 76.8629 48.8773 78.014 50.0511C79.1651 51.2249 80.7076 51.8822 82.3421 51.8822Z" fill="white"/>
<path d="M97.1194 40.8954C96.1525 39.9094 94.8863 39.3694 93.505 39.3694C92.3999 39.3694 91.364 39.7216 90.4891 40.3789V33.5239H88.4172V51.8822H90.4891V44.5577C90.4891 42.8674 91.8474 41.4823 93.505 41.4823C95.1856 41.4823 96.5439 42.8674 96.5439 44.5577V51.8822H98.6158V44.5577C98.6158 43.1726 98.0863 41.8814 97.1194 40.8954Z" fill="white"/>
<path d="M106.466 51.8822C108.123 51.8822 109.666 51.2249 110.817 50.0511C111.968 48.8773 112.612 47.3044 112.612 45.6141C112.612 43.9473 111.968 42.3744 110.817 41.2006C109.666 40.0268 108.123 39.3694 106.466 39.3694C104.831 39.3694 103.289 40.0268 102.137 41.2006C100.986 42.3744 100.342 43.9473 100.342 45.6141C100.342 47.3044 100.986 48.8773 102.137 50.0511C103.289 51.2249 104.831 51.8822 106.466 51.8822ZM106.466 41.4823C108.722 41.4823 110.54 43.3369 110.54 45.6141C110.54 47.9147 108.722 49.7694 106.466 49.7694C104.232 49.7694 102.414 47.9147 102.414 45.6141C102.414 43.3369 104.232 41.4823 106.466 41.4823Z" fill="white"/>
<path d="M119.887 51.8822C121.545 51.8822 123.087 51.2249 124.239 50.0511C125.39 48.8773 126.034 47.3044 126.034 45.6141C126.034 43.9473 125.39 42.3744 124.239 41.2006C123.087 40.0268 121.545 39.3694 119.887 39.3694C118.253 39.3694 116.71 40.0268 115.559 41.2006C114.408 42.3744 113.764 43.9473 113.764 45.6141C113.764 47.3044 114.408 48.8773 115.559 50.0511C116.71 51.2249 118.253 51.8822 119.887 51.8822ZM119.887 41.4823C122.144 41.4823 123.962 43.3369 123.962 45.6141C123.962 47.9147 122.144 49.7694 119.887 49.7694C117.654 49.7694 115.836 47.9147 115.836 45.6141C115.836 43.3369 117.654 41.4823 119.887 41.4823Z" fill="white"/>
<path d="M129.833 51.8822V33.5239H127.761V51.8822H129.833Z" fill="white"/>
<path d="M150.633 41.2006C149.482 40.0268 147.939 39.3694 146.282 39.3694C144.785 39.3694 143.358 39.9329 142.23 40.9423V39.3694H140.158V57H142.23V50.3093C143.358 51.3188 144.785 51.8822 146.282 51.8822C147.939 51.8822 149.482 51.2249 150.633 50.0511C151.784 48.8773 152.428 47.3044 152.428 45.6141C152.428 43.9473 151.784 42.3744 150.633 41.2006ZM146.282 49.7694C144.048 49.7694 142.23 47.9147 142.23 45.6141C142.23 43.3369 144.048 41.4823 146.282 41.4823C148.538 41.4823 150.356 43.3369 150.356 45.6141C150.356 47.9147 148.538 49.7694 146.282 49.7694Z" fill="white"/>
<path d="M159.703 51.8822C161.361 51.8822 162.903 51.2249 164.055 50.0511C165.206 48.8773 165.85 47.3044 165.85 45.6141C165.85 43.9473 165.206 42.3744 164.055 41.2006C162.903 40.0268 161.361 39.3694 159.703 39.3694C158.069 39.3694 156.526 40.0268 155.375 41.2006C154.224 42.3744 153.58 43.9473 153.58 45.6141C153.58 47.3044 154.224 48.8773 155.375 50.0511C156.526 51.2249 158.069 51.8822 159.703 51.8822ZM159.703 41.4823C161.96 41.4823 163.778 43.3369 163.778 45.6141C163.778 47.9147 161.96 49.7694 159.703 49.7694C157.47 49.7694 155.652 47.9147 155.652 45.6141C155.652 43.3369 157.47 41.4823 159.703 41.4823Z" fill="white"/>
<path d="M173.402 39.3694C172.435 39.4164 171.468 39.7216 170.616 40.2381C170.271 40.4259 169.948 40.6606 169.649 40.9423V39.3694H167.577V51.8822H169.649V45.5906C169.649 44.8863 169.833 44.2055 170.179 43.5717C170.524 42.9378 171.03 42.4213 171.652 42.0457C172.227 41.717 172.849 41.5292 173.517 41.4823C174.138 41.4588 174.783 41.5762 175.358 41.8344L176.187 39.9094C175.312 39.5103 174.345 39.3225 173.402 39.3694Z" fill="white"/>
<path d="M183.361 39.3694H180.575V33.5239H178.503V39.3694H176.984V41.4823H178.503V51.8822H180.575V41.4823H183.361V39.3694Z" fill="white"/>
<path d="M194.129 39.3694V40.9423C193.001 39.9329 191.574 39.3694 190.054 39.3694C188.42 39.3694 186.877 40.0268 185.726 41.2006C184.575 42.3744 183.931 43.9473 183.931 45.6141C183.931 47.3044 184.575 48.8773 185.726 50.0511C186.877 51.2249 188.42 51.8822 190.054 51.8822C191.574 51.8822 193.001 51.3188 194.129 50.3093V51.8822H196.201V39.3694H194.129ZM190.054 49.7694C187.821 49.7694 186.003 47.9147 186.003 45.6141C186.003 43.3369 187.821 41.4823 190.054 41.4823C192.311 41.4823 194.129 43.3369 194.129 45.6141C194.129 47.9147 192.311 49.7694 190.054 49.7694Z" fill="white"/>
<path d="M200 51.8822V33.5239H197.928V51.8822H200Z" fill="white"/>
</svg>
